<?xml version="1.0" encoding="UTF-8"?>
<svg id="Camada_1" data-name="Camada 1" xmlns="http://www.w3.org/2000/svg" xmlns:xlink="http://www.w3.org/1999/xlink" viewBox="0 0 1167.87 604.6">
  <defs>
    <style>
      .cls-1 {
        clip-path: url(#clippath-11);
      }

      .cls-2 {
        fill: url(#Gradiente_sem_nome_195);
      }

      .cls-2, .cls-3, .cls-4, .cls-5, .cls-6, .cls-7, .cls-8, .cls-9, .cls-10, .cls-11, .cls-12, .cls-13, .cls-14, .cls-15, .cls-16, .cls-17, .cls-18, .cls-19, .cls-20, .cls-21, .cls-22, .cls-23, .cls-24, .cls-25, .cls-26, .cls-27 {
        stroke-width: 0px;
      }

      .cls-3 {
        fill: url(#Gradiente_sem_nome_120);
      }

      .cls-4 {
        fill: url(#Gradiente_sem_nome_225);
      }

      .cls-5 {
        fill: url(#Gradiente_sem_nome_231);
      }

      .cls-28 {
        clip-path: url(#clippath-2);
      }

      .cls-6 {
        fill: url(#Gradiente_sem_nome_198);
      }

      .cls-7 {
        fill: url(#Gradiente_sem_nome_465);
      }

      .cls-8 {
        fill: #1ab281;
      }

      .cls-9 {
        fill: url(#Gradiente_sem_nome_243);
      }

      .cls-10 {
        fill: none;
      }

      .cls-29 {
        clip-path: url(#clippath-7);
      }

      .cls-30 {
        clip-path: url(#clippath-1);
      }

      .cls-31 {
        clip-path: url(#clippath-4);
      }

      .cls-11 {
        fill: url(#Gradiente_sem_nome_543);
      }

      .cls-12 {
        fill: url(#Gradiente_sem_nome_462);
      }

      .cls-13 {
        fill: url(#Gradiente_sem_nome_193);
      }

      .cls-14 {
        fill: url(#Gradiente_sem_nome_209);
      }

      .cls-15 {
        fill: url(#Gradiente_sem_nome_217);
      }

      .cls-16, .cls-32 {
        fill: url(#Gradiente_sem_nome_228);
      }

      .cls-17 {
        fill: url(#Gradiente_sem_nome_6);
      }

      .cls-33 {
        clip-path: url(#clippath-9);
      }

      .cls-34 {
        clip-path: url(#clippath);
      }

      .cls-18 {
        fill: url(#Gradiente_sem_nome_238);
      }

      .cls-35 {
        clip-path: url(#clippath-3);
      }

      .cls-19 {
        fill: url(#Gradiente_sem_nome_7);
      }

      .cls-20 {
        fill: url(#Gradiente_sem_nome_462-2);
      }

      .cls-36 {
        clip-path: url(#clippath-8);
      }

      .cls-21 {
        fill: url(#Gradiente_sem_nome_4);
      }

      .cls-22 {
        fill: url(#Gradiente_sem_nome_484);
      }

      .cls-23 {
        fill: url(#Gradiente_sem_nome_225-2);
      }

      .cls-24 {
        fill: url(#Gradiente_sem_nome_234);
      }

      .cls-25 {
        fill: url(#Gradiente_sem_nome_3);
      }

      .cls-37 {
        clip-path: url(#clippath-10);
      }

      .cls-26 {
        fill: #1d1d1b;
      }

      .cls-27 {
        fill: url(#Gradiente_sem_nome_241);
      }
    </style>
    <clipPath id="clippath">
      <path class="cls-10" d="M169.23,198.82l-6.71,161.57c-.64,15.44-20.92,20.69-28.95,7.48-27.67-45.47-70.2-116.88-95.11-166.17-4.07-8.05-13.11-12.26-21.89-10.17-8.99,2.15-15.24,10.32-14.93,19.56l7.42,228.33c.28,8.66,7.56,15.44,16.23,15.1l.59-.02c8.57-.34,15.27-7.52,15.01-16.09l-3.2-105.03c-.48-15.88,20.28-22.26,28.8-8.86l75.48,118.66c4.49,7.06,12.27,11.33,20.64,11.33,12.96,0,23.67-10.11,24.42-23.04l13.43-231.1c.51-8.81-6.37-16.3-15.19-16.53-.14,0-.28,0-.41,0-8.35,0-15.26,6.59-15.6,14.97"/>
    </clipPath>
    <linearGradient id="Gradiente_sem_nome_543" data-name="Gradiente sem nome 543" x1="-637.29" y1="892.32" x2="-636.29" y2="892.32" gradientTransform="translate(-209712.1 -293676.31) rotate(-180) scale(329.48 -329.48)" gradientUnits="userSpaceOnUse">
      <stop offset="0" stop-color="#95c848"/>
      <stop offset="1" stop-color="#06ae8a"/>
    </linearGradient>
    <clipPath id="clippath-1">
      <path class="cls-10" d="M359.82,213.92l-114.05,1.37c-7.41.09-13.43,6.03-13.6,13.45l-4.95,208.93c-.19,8.19,6.76,14.74,14.93,14.05l149.06-12.59c7.52-.64,13.13-7.21,12.58-14.74-.56-7.64-7.25-13.35-14.88-12.71l-118.32,9.86c-8.15.68-15.1-5.86-14.91-14.04l1.13-49.44c.17-7.42,6.18-13.37,13.6-13.46l89.28-1.07c7.61-.09,13.7-6.33,13.61-13.94v-.27c-.09-7.61-6.33-13.7-13.94-13.61l-87.28,1.05c-7.8.09-14.12-6.31-13.93-14.11l1.15-46.43c.18-7.41,6.19-13.34,13.6-13.43l87.27-1.05c7.61-.09,13.7-6.33,13.6-13.94v-.27c-.09-7.55-6.24-13.61-13.77-13.61-.06,0-.11,0-.17,0"/>
    </clipPath>
    <linearGradient id="Gradiente_sem_nome_3" data-name="Gradiente sem nome 3" x1="-637.29" y1="892.31" x2="-636.29" y2="892.31" gradientTransform="translate(-209484.95 -293661.47) rotate(180) scale(329.48 -329.48)" gradientUnits="userSpaceOnUse">
      <stop offset="0" stop-color="#95c848"/>
      <stop offset="1" stop-color="#06ae8a"/>
    </linearGradient>
    <clipPath id="clippath-2">
      <path class="cls-10" d="M876.14,198.32l-5.63,1.01c-6.38,1.15-11.17,6.48-11.63,12.95l-14.97,210.55c-.55,7.8,5.31,14.57,13.1,15.14l.36.03c7.82.57,14.61-5.31,15.17-13.12l7.99-111.6c1.05-14.6,20.84-18.23,27-4.95l57.38,123.76c2.43,5.25,7.82,8.5,13.6,8.19l7.3-.39c5.82-.31,10.87-4.15,12.71-9.69l37.21-112.08c4.68-14.1,25.15-12.41,27.45,2.27l16.66,106c1.22,7.75,8.5,13.04,16.25,11.79l.29-.05c7.71-1.24,12.97-8.48,11.76-16.19l-33.1-210.76c-1.01-6.43-6.27-11.35-12.75-11.92l-5.39-.48c-6.54-.58-12.63,3.41-14.7,9.64l-51.18,153.82c-4.05,12.17-20.89,13.13-26.3,1.5l-73.22-157.45c-2.35-5.06-7.41-8.2-12.84-8.2-.83,0-1.67.07-2.51.22"/>
    </clipPath>
    <linearGradient id="Gradiente_sem_nome_4" data-name="Gradiente sem nome 4" x1="-637.29" y1="892.36" x2="-636.29" y2="892.36" gradientTransform="translate(-195183.08 -274560.17) rotate(180) scale(308.04 -308.04)" gradientUnits="userSpaceOnUse">
      <stop offset="0" stop-color="#95c848"/>
      <stop offset="1" stop-color="#06ae8a"/>
    </linearGradient>
    <clipPath id="clippath-3">
      <path class="cls-10" d="M715.44,206.32c-15.66,2.09-30.41,6.82-43.63,15.67-14.09,9.43-24.09,21.58-25.27,39.31-1.1,16.5,3.83,30.53,17.18,41.01,8.49,6.67,18.22,11,28.12,15.05.88.36,1.72.84,2.99,1.47-.93.75-1.3,1.19-1.78,1.4-5.59,2.42-11.3,4.57-16.77,7.23-13.3,6.49-25.67,14.25-34.07,26.96-11.64,17.61-12.68,35.77-1.99,54.06,7.39,12.65,18.19,21.99,31.08,28.86,13.92,7.42,29.01,10.51,44.57,11.79,23.7,1.94,46.92.02,69.12-9.12,11.6-4.77,22.27-11.14,30.63-20.71,7.71-8.82,11.36-18.82,7.66-30.56-2.72-8.64-11.42-15.65-20.2-16.36-10.63-.86-19.44,3.73-23.68,12.85-3.06,6.58-5.73,13.35-8.34,20.13-5.92,15.39-16.24,25.39-33.2,27.04-19.74,1.92-36.37-3.99-47.36-21.21-9.7-15.2-10.45-32.09-6.85-49.26,3.95-18.9,21.1-33.91,40.37-34.48,11.08-.33,22.21,1.45,33.34,1.7,5.18.12,10.46-.81,15.57-1.89,2.88-.61,5.16-2.73,5.36-6.21.21-3.71-1.85-6.02-4.85-7.47-1.86-.9-4.03-1.62-6.06-1.6-7.85.06-15.69.49-23.54.72-8.77.26-17.64,1.32-26.3.45-12-1.21-21.25-7.7-26.95-18.59-6.33-12.09-6.68-25.01-4.67-38.11,1.36-8.9,5.07-16.84,11.43-23.33,12.51-12.76,28.06-15.71,45.04-13.5,11.39,1.48,19.8,7.42,25.1,17.68,1.67,3.23,3.26,6.52,5.27,9.54,3.09,4.66,6.01,9.59,9.89,13.54,5.83,5.93,15.41,6.87,22.57,3.18,8.14-4.18,13.43-12.79,12.12-20.89-1.5-9.33-6.35-16.87-14.15-22.25-10.47-7.22-22.52-10.42-34.78-12.62-10.47-1.88-21-2.88-31.56-2.88-7.13,0-14.26.46-21.41,1.41"/>
    </clipPath>
    <linearGradient id="Gradiente_sem_nome_6" data-name="Gradiente sem nome 6" x1="-637.29" y1="892.36" x2="-636.29" y2="892.36" gradientTransform="translate(-195421.21 -274551.03) rotate(-180) scale(308.04 -308.04)" gradientUnits="userSpaceOnUse">
      <stop offset="0" stop-color="#95c848"/>
      <stop offset="1" stop-color="#06ae8a"/>
    </linearGradient>
    <clipPath id="clippath-4">
      <path class="cls-10" d="M525.92,263.28c1.42,2.34,3.14,4.66,5.06,6.97h.01c-2.02-2.47-3.69-4.79-5.04-6.97,0,0-.02,0-.02,0"/>
    </clipPath>
    <linearGradient id="Gradiente_sem_nome_7" data-name="Gradiente sem nome 7" x1="-593.95" y1="894.67" x2="-592.95" y2="894.67" gradientTransform="translate(3535.96 4800.81) scale(5.07 -5.07)" gradientUnits="userSpaceOnUse">
      <stop offset="0" stop-color="#0964ad"/>
      <stop offset=".07" stop-color="#42578e"/>
      <stop offset=".15" stop-color="#7e4a6f"/>
      <stop offset=".22" stop-color="#ad3f57"/>
      <stop offset=".29" stop-color="#cf3845"/>
      <stop offset=".34" stop-color="#e4333a"/>
      <stop offset=".38" stop-color="#ec3237"/>
      <stop offset=".69" stop-color="#fff112"/>
      <stop offset=".87" stop-color="#3eb870"/>
      <stop offset="1" stop-color="#3eb870"/>
    </linearGradient>
    <clipPath id="clippath-7">
      <path class="cls-10" d="M515.43,338.3c-.08.04-.17.07-.25.11-2.57,1.17-.84,4.43,1.95,3.66l41.71-11.57c1.6-.44,2.17-2.08,1.12-3.17-.45-.47-.88-.91-1.31-1.34-.63-.63-1.64-.87-2.58-.61-9.57,2.66-35.68,10.7-40.64,12.92"/>
    </clipPath>
    <linearGradient id="Gradiente_sem_nome_198" data-name="Gradiente sem nome 198" x1="-631.19" y1="889.02" x2="-629.81" y2="889.02" gradientTransform="translate(30412.34 19343.41) rotate(-22.18) scale(32.49 -32.49)" gradientUnits="userSpaceOnUse">
      <stop offset="0" stop-color="#53bc66"/>
      <stop offset=".41" stop-color="#f9b104"/>
    </linearGradient>
    <linearGradient id="Gradiente_sem_nome_228" data-name="Gradiente sem nome 228" x1="521.63" y1="316.48" x2="551.93" y2="316.48" gradientUnits="userSpaceOnUse">
      <stop offset="0" stop-color="#44b96e"/>
      <stop offset=".02" stop-color="#4bb96a"/>
      <stop offset=".07" stop-color="#52b967"/>
      <stop offset=".2" stop-color="#54ba67"/>
      <stop offset=".21" stop-color="#59b864"/>
      <stop offset=".25" stop-color="#7eaf55"/>
      <stop offset=".3" stop-color="#9ea648"/>
      <stop offset=".35" stop-color="#b99f3d"/>
      <stop offset=".41" stop-color="#cf9934"/>
      <stop offset=".47" stop-color="#e0952d"/>
      <stop offset=".56" stop-color="#ec9228"/>
      <stop offset=".67" stop-color="#f39025"/>
      <stop offset="1" stop-color="#f59025"/>
    </linearGradient>
    <clipPath id="clippath-8">
      <path class="cls-16" d="M522.01,320.22s-.1.03-.17.09c-.47.4-.11,1.66.6,3.22,9.83-3.33,19.66-6.65,29.49-9.98-.72-1.37-1.45-2.75-2.17-4.12-16.08,6.32-27.11,10.63-27.75,10.79Z"/>
    </clipPath>
    <linearGradient id="Gradiente_sem_nome_209" data-name="Gradiente sem nome 209" x1="509.83" y1="316.97" x2="558.48" y2="316.97" gradientUnits="userSpaceOnUse">
      <stop offset="0" stop-color="#5bbe63"/>
      <stop offset=".22" stop-color="#5cbd61"/>
      <stop offset=".3" stop-color="#63b95d"/>
      <stop offset=".36" stop-color="#6fb356"/>
      <stop offset=".41" stop-color="#80ab4c"/>
      <stop offset=".45" stop-color="#96a03f"/>
      <stop offset=".48" stop-color="#b1922f"/>
      <stop offset=".51" stop-color="#d1821c"/>
      <stop offset=".54" stop-color="#f0730a"/>
    </linearGradient>
    <clipPath id="clippath-9">
      <path class="cls-10" d="M519.73,354.04c-7.65,3.6-4.57,5.4-4.56,5.41,0,0,0,0,0,0l42.98-12.53,1.21-4.66h0c-.63-.66-1.52-.91-2.36-.67-8.71,2.54-32.72,10.31-37.27,12.45"/>
    </clipPath>
    <linearGradient id="Gradiente_sem_nome_195" data-name="Gradiente sem nome 195" x1="-631.28" y1="888.54" x2="-629.9" y2="888.54" gradientTransform="translate(30412.34 19343.41) rotate(-22.18) scale(32.49 -32.49)" gradientUnits="userSpaceOnUse">
      <stop offset="0" stop-color="#4cbb6a"/>
      <stop offset=".15" stop-color="#93c43f"/>
      <stop offset=".36" stop-color="#fdd301"/>
    </linearGradient>
    <linearGradient id="Gradiente_sem_nome_462" data-name="Gradiente sem nome 462" x1="550.72" y1="233.29" x2="550.88" y2="240.54" gradientUnits="userSpaceOnUse">
      <stop offset="0" stop-color="#78c355"/>
      <stop offset="1" stop-color="#78c355"/>
    </linearGradient>
    <linearGradient id="Gradiente_sem_nome_465" data-name="Gradiente sem nome 465" x1="505.32" y1="256.22" x2="505.45" y2="262.1" gradientTransform="translate(51.43 -301.8) rotate(20.12) scale(1.29 1.33) skewX(1.24)" gradientUnits="userSpaceOnUse">
      <stop offset="0" stop-color="#78c355"/>
      <stop offset="1" stop-color="#73c258"/>
    </linearGradient>
    <linearGradient id="Gradiente_sem_nome_217" data-name="Gradiente sem nome 217" x1="538.14" y1="270.67" x2="536.56" y2="265.15" gradientUnits="userSpaceOnUse">
      <stop offset="0" stop-color="#961f42"/>
      <stop offset=".55" stop-color="#85244c"/>
      <stop offset="1" stop-color="#7e2751"/>
    </linearGradient>
    <linearGradient id="Gradiente_sem_nome_231" data-name="Gradiente sem nome 231" x1="532.5" y1="259.31" x2="531.14" y2="254.55" gradientUnits="userSpaceOnUse">
      <stop offset="0" stop-color="#51356d"/>
      <stop offset=".41" stop-color="#483772"/>
      <stop offset="1" stop-color="#343f7f"/>
    </linearGradient>
    <linearGradient id="Gradiente_sem_nome_462-2" data-name="Gradiente sem nome 462" x1="547.98" y1="225.48" x2="547.98" y2="225.5" xlink:href="#Gradiente_sem_nome_462"/>
    <clipPath id="clippath-10">
      <path class="cls-10" d="M426.94,52.56c-22.05,22.32-28.3,56.64-21.7,83.48,1.22,4.95,2.72,8.89,3.48,10.85,4.66,12.08,13.7,28.48,20.81,43.67.81,1.73,2.4,5.18.9,7.27-1.21,1.69-4.34,1.85-8.96,1.46-10.11-.86-18.95-6.72-22.32-9.23-.78-.61-1.57-1.23-2.36-1.86-2.08-1.66.2-4.86,2.45-3.42,6.57,4.18,12.42,7.29,15.71,8.94,1.39.7,3.03-.31,3.03-1.86,0-4.81-1.22-14.56-9.33-26.37-1.5-2.19-18.53-22.52-44.63-21.03-17.04.97-34.29,10.3-33.6,16.4.73,6.4,20.49,2.95,33.96,18.38,2.85,3.26,5.84,7.85,12.26,12.26,5.9,4.05,12.26,6.25,13.15,6.56,1.58.56,3.19,1.02,4.98,1.44,6.82,1.6,14.44,1.11,23.22,5.5,0,0,10.17,3.92,13.89,10.61.9,1.61,1.47,3.18,1.83,4.56.02.06.03.12.03.19,0,0,.04.23.11.67,0,.02,0,.04.01.06,4.57,24.22,7.89,53.14,7.89,53.14,2.99,26.01,5.38,46.8,6.13,75.06.3,11.34.51,30.33-1.53,54.13-2.57,30.04-6.7,44.16-15.32,54.38-7.36,8.73-17.19,15.06-17.19,15.06-6.4,4.11-12,6.38-14.72,7.4-5.64,2.11-9.99,3.05-16.85,4.34-8.17,1.54-10.18,1.57-17.62,3.06-9.34,1.88-14,2.89-14.03,4.29-.04,2.08,10.02,4.58,19.39,4.91,9.24.32,16.32-1.52,24-3.57,13.87-3.72,16.03-6.54,26.98-7.83,6.48-.76,10.98-1.22,16,1.02,8.52,3.81,12.15,12.61,13.45,15.74,4.85,11.76,2.09,22.39,5.28,23.06,1.71.36,4.58-2.25,5.96-4.17.13-.18.39-.57,1.22-2.09.8-1.47,1.38-2.76,2.73-5.48,0,0,1.11-2.41,3.45-6.73,2.56-4.72,8.36-10.27,15.06-12.51,2.73-.91,5.74-1.32,17.36.51,13.13,2.07,15.95,3.65,23.49,4.85,13.85,2.2,25,.2,29.87-.77,14.6-2.9,28.66-9.5,28.09-11.74-.42-1.64-8.93.54-25.28.51-17.6-.03-29.51-2.49-32.17-3.06-20.64-4.44-32.21-12.45-32.17-16.34.03-2.46,1.19-4.51,1.19-4.51.78-1.38,1.74-2.17,2.3-2.64,1.71-1.45,5.93-5.03,8-8.94,1.26-2.38,2.26-5.88,1.28-6.55-1.27-.87-4.29,4.02-11.15,6.47-2.13.76-6.66,2.38-10.04.68-4.1-2.06-4.7-8.1-5.46-14.94-1.21-9.37-2.9-22.71-4.75-38.8-2.66-23.13-3.99-34.69-4.86-47.71-1.75-26.44-2.63-39.67-.51-54.13,3.09-21.09,7.16-48.87,29.77-64.85,21.26-15.02,60.77-22.4,77.41.69,17.98,24.93,19.56,74.5-1.7,107.92-21.26,33.42-53.49,22.3-57.47,9.73-3.97-12.57,5.5-32.59,20.95-47.33,17-16.21,27.66-26.3,29.93-44.1.91-7.16-.29-13.26-1.43-17.26-.79-2.3-2.32-5.83-5.3-9.38-2.44-2.91-4.76-4.54-5.32-4.92-5.5-3.74-11.04-4.25-11.14-3.98-.07.2,2.32,1.27,4.96,3.92,0,0,2.61,2.38,4.51,4.85,4.19,5.45,4.5,12.72,4.62,16.47.31,10.06-2.93,17.85-4.28,20.81-7.33,16.12-19.51,22.28-29.75,32.15-14.7,14.16-32.07,42.34-24.12,61,8.8,20.65,47.82,27.81,74.89,16,15.53-6.78,23.89-18.39,29.28-25.87,26.88-37.35,18.11-81.92,16.34-90.89-3.25-16.51-7.36-37.36-25.36-53.68-18.62-16.88-49.09-22.15-75.76-17.45-37.5,6.61-55.96,28-60.93,34.7-.52.7-1.61.41-1.72-.46l-.6-4.78c-.36-4.34-.1-15.49,10.67-23.4,16.82-12.35,17.19-12.84,21.02-16.59,4.55-4.45,9.73-11.87,14.73-28.82,2.79-9.46,6.72-22.78,3.4-24.51-1.7-.88-4.54,1.66-7.24,3.97-23.14,19.82-30.51,16.74-34.86,28.72-4.15,11.45-3.17,19.79-2.14,23.9.35,1.41,2.08,1.93,3.17.97,2.17-1.91,5.7-5.15,9.64-9.26,1.69-1.77,4.43.57,2.94,2.51-.05.07-.11.14-.16.21-4.32,5.42-8.35,9.17-12.22,12.06-.67.51-1.32.97-1.96,1.4-.05.04-.11.07-.16.11-9.68,6.52-14.95,6.53-23.91-6.69-6.34-9.35-9.9-15.71-11.32-24.11-1.44-8.48-2.95-19.07-3.53-28.73h0c-.41-6.84-.36-13.19.53-18,.24-1.31,2.16-1.23,2.28.1,2.36,26.17,10.84,51.84,13.81,60.19.51,1.43,2.3,1.86,3.41.83,7.22-6.71,20.89-22.58,20.2-42.06-.73-20.83-14.29-22.04-18.57-45.44-4.66-25.49,7.77-44.01,1.53-47.66-5.82-3.41-19.91,10.84-21.44,12.39Z"/>
    </clipPath>
    <linearGradient id="Gradiente_sem_nome_120" data-name="Gradiente sem nome 120" x1="-637.39" y1="892.39" x2="-636.3" y2="892.39" gradientTransform="translate(-258628.97 193840.06) rotate(88.75) scale(294.98 -294.98)" gradientUnits="userSpaceOnUse">
      <stop offset="0" stop-color="#95c848"/>
      <stop offset=".16" stop-color="#88c54d"/>
      <stop offset=".45" stop-color="#67bf5d"/>
      <stop offset=".84" stop-color="#31b675"/>
      <stop offset="1" stop-color="#1ab281"/>
    </linearGradient>
    <clipPath id="clippath-11">
      <path class="cls-10" d="M523.7,279.96c2.4,3.03,4.02,4.57,9.38,10.21,3.06,3.22,6.9,7.31,11.29,12.11h0s.63.75,1.6,2.09c.55.73,1.09,1.47,1.6,2.22-.01,0-.03.01-.04.01.89,1.34,1.9,2.94,2.92,4.76l.13-.04c1.46,2.57,2.71,5.29,3.75,8.18,0,0,0,0,0,0,2.54,6.57,4.09,14.29,2.24,21.82h.04c-.31,1.27-.71,2.46-1.18,3.56,0,0,0,0,0,0h0c-4.47,10.49-15.24,13.25-15.24,13.25,0,0,26.05-.49,30.19-27.86,3.08-20.38-17.1-37.82-32.5-55.02h0c-2.66-2.91-4.95-5.67-6.91-8.28h-.01c-2.05-2.68-3.88-5.38-5.37-8.09,0,0,.02,0,.03,0-3.31-5.68-4.54-10.75-5.06-13.95-.53-3.3-1.08-6.96.44-11.19.73-2.04,1.71-3.58,2.47-4.6-1.31.56-3.5,1.67-5.57,3.7-8.45,8.29-6.65,23.86-2.85,33.26,2.39,5.91,6.01,10.49,8.68,13.85Z"/>
    </clipPath>
    <linearGradient id="Gradiente_sem_nome_193" data-name="Gradiente sem nome 193" x1="-636.83" y1="893.38" x2="-635.83" y2="893.38" gradientTransform="translate(-108680.51 78101.46) rotate(90) scale(122.25 -122.25)" gradientUnits="userSpaceOnUse">
      <stop offset="0" stop-color="#00509f"/>
      <stop offset=".07" stop-color="#383d7b"/>
      <stop offset=".15" stop-color="#742956"/>
      <stop offset=".22" stop-color="#a31a39"/>
      <stop offset=".29" stop-color="#c50f24"/>
      <stop offset=".34" stop-color="#da0817"/>
      <stop offset=".38" stop-color="#e20613"/>
      <stop offset=".43" stop-color="#e62a0f"/>
      <stop offset=".5" stop-color="#ed5a0b"/>
      <stop offset=".58" stop-color="#f28408"/>
      <stop offset=".66" stop-color="#f7a605"/>
      <stop offset=".74" stop-color="#fac002"/>
      <stop offset=".82" stop-color="#fdd301"/>
      <stop offset=".91" stop-color="#fede00"/>
      <stop offset="1" stop-color="#ffe200"/>
    </linearGradient>
    <linearGradient id="Gradiente_sem_nome_225" data-name="Gradiente sem nome 225" x1="533.12" y1="250.53" x2="532.24" y2="247.46" gradientTransform="translate(133.92 -247.34) rotate(24.4) scale(.97 1.16) skewX(10.63)" gradientUnits="userSpaceOnUse">
      <stop offset="0" stop-color="#044f9d"/>
      <stop offset="1" stop-color="#00509f"/>
    </linearGradient>
    <linearGradient id="Gradiente_sem_nome_225-2" data-name="Gradiente sem nome 225" x1="469.21" y1="275.15" x2="468.82" y2="272.92" gradientTransform="translate(-173.72 -25.71) rotate(-8.9) scale(1.39 1.37) skewX(.38)" xlink:href="#Gradiente_sem_nome_225"/>
    <linearGradient id="Gradiente_sem_nome_484" data-name="Gradiente sem nome 484" x1="522.83" y1="247.75" x2="522.96" y2="253.43" gradientTransform="translate(90.95 -434.08) rotate(27.87) scale(1.21 1.59) skewX(18.78)" gradientUnits="userSpaceOnUse">
      <stop offset="0" stop-color="#78c355"/>
      <stop offset=".46" stop-color="#70c15a"/>
      <stop offset="1" stop-color="#6fc15a"/>
    </linearGradient>
    <linearGradient id="Gradiente_sem_nome_234" data-name="Gradiente sem nome 234" x1="432.86" y1="286.17" x2="432.47" y2="283.94" gradientTransform="translate(-393.42 -144.57) rotate(-9.29) scale(1.98 1.94) skewX(.7)" gradientUnits="userSpaceOnUse">
      <stop offset="0" stop-color="#6fc15a"/>
      <stop offset="1" stop-color="#70c15a"/>
    </linearGradient>
    <linearGradient id="Gradiente_sem_nome_241" data-name="Gradiente sem nome 241" x1="521.95" y1="239.69" x2="521.21" y2="237.1" gradientUnits="userSpaceOnUse">
      <stop offset="0" stop-color="#00509f"/>
      <stop offset="1" stop-color="#00509f"/>
    </linearGradient>
    <linearGradient id="Gradiente_sem_nome_238" data-name="Gradiente sem nome 238" x1="524.48" y1="238.3" x2="523.91" y2="236.33" gradientUnits="userSpaceOnUse">
      <stop offset="0" stop-color="#00509f"/>
      <stop offset="1" stop-color="#00509f"/>
    </linearGradient>
    <linearGradient id="Gradiente_sem_nome_243" data-name="Gradiente sem nome 243" x1="546.63" y1="229.54" x2="545.86" y2="226.86" gradientUnits="userSpaceOnUse">
      <stop offset="0" stop-color="#7fc452"/>
      <stop offset="1" stop-color="#7ec453"/>
    </linearGradient>
  </defs>
  <g>
    <polygon class="cls-8" points="639.38 488.49 634.87 488.49 627.32 477.05 627.32 488.49 622.8 488.49 622.8 469.95 627.32 469.95 634.87 481.44 634.87 469.95 639.38 469.95 639.38 488.49"/>
    <path class="cls-8" d="M658.79,473.75v14.73h-4.52v-2.01c-.46.65-1.08,1.18-1.86,1.57-.78.39-1.65.59-2.6.59-1.13,0-2.12-.25-2.98-.75-.86-.5-1.53-1.23-2.01-2.18-.48-.95-.71-2.07-.71-3.35v-8.61h4.49v8c0,.99.26,1.75.77,2.3.51.55,1.2.82,2.06.82s1.58-.27,2.09-.82c.51-.55.77-1.31.77-2.3v-8h4.52ZM654.59,470.08l-6.36,2.67v-3.12l6.36-3.07v3.51Z"/>
    <path class="cls-8" d="M663.66,477.11c.62-1.14,1.5-2.02,2.61-2.64,1.12-.61,2.4-.92,3.84-.92,1.85,0,3.39.48,4.63,1.45,1.24.97,2.05,2.33,2.44,4.09h-4.8c-.41-1.13-1.19-1.69-2.35-1.69-.83,0-1.49.32-1.98.96-.49.64-.74,1.56-.74,2.76s.25,2.12.74,2.76c.49.64,1.15.96,1.98.96,1.16,0,1.95-.56,2.35-1.69h4.8c-.39,1.72-1.2,3.08-2.45,4.07-1.25.99-2.79,1.48-4.62,1.48-1.44,0-2.73-.31-3.84-.92-1.12-.62-1.99-1.5-2.61-2.64-.62-1.14-.94-2.48-.94-4.01s.31-2.87.94-4.02"/>
    <rect class="cls-8" x="681.18" y="468.95" width="4.52" height="19.54"/>
    <path class="cls-8" d="M704.36,482.2h-10.22c.07.91.37,1.62.89,2.1.52.48,1.16.73,1.91.73,1.13,0,1.91-.48,2.35-1.43h4.8c-.25.97-.69,1.84-1.33,2.61-.64.77-1.45,1.38-2.42,1.82-.97.44-2.05.66-3.25.66-1.44,0-2.73-.31-3.85-.92-1.13-.62-2.01-1.49-2.64-2.64-.63-1.14-.95-2.48-.95-4.01s.31-2.87.94-4.02c.62-1.14,1.5-2.02,2.63-2.64,1.13-.62,2.42-.92,3.88-.92s2.69.3,3.8.9c1.11.6,1.98,1.45,2.6,2.56.62,1.11.94,2.4.94,3.88,0,.42-.03.86-.08,1.32M699.82,479.69c0-.77-.27-1.39-.79-1.85-.53-.46-1.19-.69-1.98-.69s-1.4.22-1.91.66c-.52.44-.84,1.06-.96,1.88h5.65Z"/>
    <path class="cls-8" d="M711.21,487.77c-1.15-.62-2.06-1.5-2.72-2.64-.66-1.14-.99-2.48-.99-4.01s.33-2.85,1-4c.67-1.15,1.58-2.04,2.75-2.65,1.16-.61,2.46-.92,3.91-.92s2.75.31,3.91.92c1.16.62,2.08,1.5,2.75,2.65.67,1.15,1,2.49,1,4s-.34,2.85-1.02,4c-.68,1.15-1.6,2.04-2.77,2.65-1.17.62-2.48.92-3.92.92s-2.74-.31-3.9-.92M717.31,483.84c.61-.63.91-1.54.91-2.72s-.29-2.09-.88-2.72c-.59-.64-1.32-.95-2.18-.95s-1.61.31-2.19.94c-.58.62-.87,1.54-.87,2.73s.29,2.09.86,2.72c.57.64,1.29.95,2.15.95s1.6-.32,2.2-.95"/>
    <path class="cls-8" d="M733.95,477.1c.57-1.14,1.35-2.02,2.34-2.64.99-.62,2.09-.92,3.3-.92.97,0,1.85.2,2.65.61.8.4,1.43.95,1.89,1.64v-6.84h4.52v19.54h-4.52v-2.11c-.42.7-1.03,1.27-1.81,1.69-.78.42-1.69.63-2.73.63-1.21,0-2.31-.31-3.3-.94-.99-.62-1.76-1.51-2.34-2.67-.57-1.15-.86-2.49-.86-4s.29-2.84.86-3.99M743.19,478.45c-.62-.65-1.39-.98-2.28-.98s-1.66.32-2.29.96c-.62.64-.94,1.53-.94,2.65s.31,2.02.94,2.68c.63.66,1.39.99,2.29.99s1.66-.33,2.28-.98c.62-.65.94-1.54.94-2.67s-.31-2.02-.94-2.67"/>
    <path class="cls-8" d="M767.31,482.2h-10.22c.07.91.37,1.62.89,2.1.52.48,1.16.73,1.91.73,1.13,0,1.91-.48,2.35-1.43h4.8c-.25.97-.69,1.84-1.33,2.61-.64.77-1.45,1.38-2.42,1.82-.97.44-2.05.66-3.25.66-1.44,0-2.73-.31-3.85-.92s-2.01-1.49-2.64-2.64c-.63-1.14-.95-2.48-.95-4.01s.31-2.87.94-4.02c.62-1.14,1.5-2.02,2.63-2.64,1.13-.62,2.42-.92,3.88-.92s2.69.3,3.8.9c1.11.6,1.98,1.45,2.6,2.56.62,1.11.94,2.4.94,3.88,0,.42-.03.86-.08,1.32M762.77,479.69c0-.77-.27-1.39-.79-1.85-.53-.46-1.19-.69-1.98-.69s-1.4.22-1.91.66c-.52.44-.84,1.06-.96,1.88h5.65Z"/>
    <polygon class="cls-8" points="783.05 473.57 783.05 477.32 789.09 477.32 789.09 480.8 783.05 480.8 783.05 484.87 789.88 484.87 789.88 488.49 778.53 488.49 778.53 469.95 789.88 469.95 789.88 473.57 783.05 473.57"/>
    <path class="cls-8" d="M796.96,488.04c-1-.44-1.79-1.04-2.38-1.81-.58-.77-.91-1.62-.98-2.58h4.46c.05.51.29.93.71,1.24.42.32.94.48,1.56.48.56,0,1-.11,1.31-.33.31-.22.46-.51.46-.86,0-.42-.22-.74-.66-.94-.44-.2-1.15-.43-2.14-.67-1.06-.25-1.94-.51-2.64-.78-.7-.27-1.31-.7-1.82-1.29-.51-.59-.77-1.39-.77-2.39,0-.84.23-1.61.7-2.31.47-.7,1.15-1.24,2.06-1.65.91-.41,1.98-.61,3.23-.61,1.85,0,3.31.46,4.37,1.37,1.06.92,1.68,2.13,1.83,3.64h-4.17c-.07-.51-.3-.92-.67-1.21-.38-.3-.88-.45-1.49-.45-.53,0-.93.1-1.21.3-.28.2-.42.48-.42.83,0,.42.22.74.67.95.45.21,1.15.42,2.1.63,1.09.28,1.98.56,2.67.83.69.27,1.29.71,1.81,1.32.52.61.79,1.42.8,2.44,0,.86-.24,1.63-.72,2.31-.49.68-1.18,1.21-2.09,1.6-.91.39-1.96.58-3.16.58-1.29,0-2.43-.22-3.43-.66"/>
    <path class="cls-8" d="M818.93,484.66v3.83h-2.3c-1.64,0-2.91-.4-3.83-1.2-.92-.8-1.37-2.11-1.37-3.92v-5.86h-1.8v-3.75h1.8v-3.59h4.52v3.59h2.96v3.75h-2.96v5.92c0,.44.1.76.31.95.21.19.56.29,1.06.29h1.61Z"/>
    <path class="cls-8" d="M837.57,473.75v14.73h-4.52v-2.01c-.46.65-1.08,1.17-1.86,1.57-.78.39-1.65.59-2.6.59-1.13,0-2.12-.25-2.98-.75-.86-.5-1.53-1.23-2.01-2.18-.48-.95-.71-2.07-.71-3.35v-8.61h4.49v8c0,.99.25,1.75.77,2.3.51.55,1.2.82,2.06.82s1.58-.27,2.09-.82c.51-.55.76-1.31.76-2.3v-8h4.52Z"/>
    <path class="cls-8" d="M842.36,477.1c.57-1.14,1.35-2.02,2.34-2.64.99-.62,2.09-.92,3.3-.92.97,0,1.85.2,2.65.61.8.4,1.43.95,1.89,1.64v-6.84h4.52v19.54h-4.52v-2.11c-.42.7-1.03,1.27-1.81,1.69-.78.42-1.69.63-2.73.63-1.21,0-2.31-.31-3.3-.94-.99-.62-1.76-1.51-2.34-2.67-.57-1.15-.86-2.49-.86-4s.29-2.84.86-3.99M851.6,478.45c-.62-.65-1.39-.98-2.28-.98s-1.66.32-2.28.96c-.62.64-.94,1.53-.94,2.65s.31,2.02.94,2.68,1.38.99,2.28.99,1.66-.33,2.28-.98c.62-.65.94-1.54.94-2.67s-.31-2.02-.94-2.67"/>
    <path class="cls-8" d="M864.73,487.77c-1.15-.62-2.06-1.5-2.72-2.64-.66-1.14-.99-2.48-.99-4.01s.33-2.85,1-4c.67-1.15,1.58-2.04,2.75-2.65,1.16-.61,2.46-.92,3.91-.92s2.75.31,3.91.92c1.16.62,2.08,1.5,2.75,2.65.67,1.15,1,2.49,1,4s-.34,2.85-1.02,4c-.68,1.15-1.6,2.04-2.77,2.65-1.17.62-2.48.92-3.92.92s-2.74-.31-3.9-.92M870.82,483.84c.61-.63.91-1.54.91-2.72s-.29-2.09-.88-2.72c-.59-.64-1.32-.95-2.18-.95s-1.61.31-2.19.94c-.58.62-.87,1.54-.87,2.73s.29,2.09.86,2.72c.57.64,1.29.95,2.15.95s1.6-.32,2.2-.95"/>
    <path class="cls-8" d="M882.88,488.04c-1-.44-1.79-1.04-2.38-1.81-.58-.77-.91-1.62-.98-2.58h4.46c.05.51.29.93.71,1.24.42.32.94.48,1.56.48.56,0,1-.11,1.31-.33.31-.22.46-.51.46-.86,0-.42-.22-.74-.66-.94-.44-.2-1.15-.43-2.14-.67-1.06-.25-1.94-.51-2.64-.78-.7-.27-1.31-.7-1.82-1.29-.51-.59-.77-1.39-.77-2.39,0-.84.23-1.61.7-2.31.47-.7,1.15-1.24,2.06-1.65.91-.41,1.98-.61,3.23-.61,1.85,0,3.31.46,4.37,1.37,1.06.92,1.68,2.13,1.83,3.64h-4.17c-.07-.51-.3-.92-.67-1.21-.38-.3-.88-.45-1.49-.45-.53,0-.93.1-1.21.3-.28.2-.42.48-.42.83,0,.42.22.74.67.95.45.21,1.15.42,2.1.63,1.09.28,1.98.56,2.67.83.69.27,1.29.71,1.81,1.32.52.61.79,1.42.8,2.44,0,.86-.24,1.63-.72,2.31-.49.68-1.18,1.21-2.09,1.6-.91.39-1.96.58-3.16.58-1.29,0-2.43-.22-3.43-.66"/>
    <path class="cls-8" d="M917.63,482.2h-10.22c.07.91.37,1.62.89,2.1.52.48,1.16.73,1.91.73,1.13,0,1.91-.48,2.35-1.43h4.81c-.25.97-.69,1.84-1.33,2.61-.64.77-1.45,1.38-2.42,1.82-.97.44-2.05.66-3.25.66-1.44,0-2.73-.31-3.85-.92s-2.01-1.49-2.64-2.64c-.63-1.14-.95-2.48-.95-4.01s.31-2.87.94-4.02c.62-1.14,1.5-2.02,2.63-2.64,1.13-.62,2.42-.92,3.88-.92s2.69.3,3.8.9c1.11.6,1.98,1.45,2.6,2.56.62,1.11.94,2.4.94,3.88,0,.42-.03.86-.08,1.32M913.08,479.69c0-.77-.26-1.39-.79-1.85-.53-.46-1.19-.69-1.98-.69s-1.4.22-1.91.66c-.52.44-.84,1.06-.96,1.88h5.65Z"/>
    <path class="cls-8" d="M942.23,478.86c-.49.89-1.25,1.61-2.27,2.15-1.02.55-2.29.82-3.8.82h-2.8v6.65h-4.52v-18.54h7.31c1.48,0,2.73.26,3.75.77,1.02.51,1.79,1.21,2.3,2.11.51.9.77,1.93.77,3.09,0,1.07-.25,2.06-.74,2.94M937.75,477.63c.42-.4.63-.98.63-1.71s-.21-1.31-.63-1.72c-.42-.4-1.06-.61-1.93-.61h-2.46v4.65h2.46c.86,0,1.5-.2,1.93-.61"/>
    <path class="cls-8" d="M960.72,482.2h-10.22c.07.91.37,1.62.89,2.1.52.48,1.16.73,1.91.73,1.13,0,1.91-.48,2.35-1.43h4.81c-.25.97-.69,1.84-1.33,2.61-.64.77-1.45,1.38-2.42,1.82-.97.44-2.05.66-3.25.66-1.44,0-2.73-.31-3.85-.92s-2.01-1.49-2.64-2.64c-.63-1.14-.95-2.48-.95-4.01s.31-2.87.94-4.02c.62-1.14,1.5-2.02,2.63-2.64,1.13-.62,2.42-.92,3.88-.92s2.69.3,3.8.9c1.11.6,1.98,1.45,2.6,2.56.62,1.11.94,2.4.94,3.88,0,.42-.03.86-.08,1.32M956.18,479.69c0-.77-.26-1.39-.79-1.85-.53-.46-1.19-.69-1.98-.69s-1.4.22-1.91.66c-.52.44-.84,1.06-.96,1.88h5.65Z"/>
    <path class="cls-8" d="M967.32,488.04c-1-.44-1.8-1.04-2.38-1.81-.58-.77-.91-1.62-.98-2.58h4.46c.05.51.29.93.71,1.24.42.32.94.48,1.56.48.56,0,1-.11,1.31-.33.31-.22.46-.51.46-.86,0-.42-.22-.74-.66-.94-.44-.2-1.15-.43-2.14-.67-1.06-.25-1.94-.51-2.64-.78-.7-.27-1.31-.7-1.82-1.29s-.77-1.39-.77-2.39c0-.84.23-1.61.7-2.31.47-.7,1.15-1.24,2.06-1.65.91-.41,1.98-.61,3.23-.61,1.85,0,3.31.46,4.37,1.37,1.07.92,1.68,2.13,1.83,3.64h-4.17c-.07-.51-.3-.92-.67-1.21-.38-.3-.88-.45-1.49-.45-.53,0-.93.1-1.21.3-.28.2-.42.48-.42.83,0,.42.22.74.67.95.45.21,1.15.42,2.1.63,1.09.28,1.98.56,2.67.83.69.27,1.29.71,1.81,1.32.52.61.79,1.42.8,2.44,0,.86-.24,1.63-.72,2.31-.49.68-1.18,1.21-2.09,1.6-.91.39-1.96.58-3.16.58-1.29,0-2.43-.22-3.43-.66"/>
    <path class="cls-8" d="M981.09,477.24c.61-1.14,1.43-2.04,2.46-2.68,1.03-.64,2.15-.96,3.37-.96.93,0,1.77.17,2.51.49.74.33,1.34.78,1.8,1.36v-1.69h4.52v21.76h-4.52v-8.87c-.51.62-1.13,1.11-1.86,1.48-.73.37-1.56.55-2.5.55-1.2,0-2.31-.32-3.33-.95-1.02-.63-1.84-1.52-2.44-2.67-.61-1.14-.91-2.45-.91-3.91s.3-2.76.91-3.91M990.75,479.13c-.31-.54-.71-.94-1.2-1.21-.49-.27-1.01-.41-1.56-.41s-1.04.14-1.53.41c-.49.28-.9.68-1.21,1.23-.32.55-.47,1.22-.47,2.01s.16,1.46.47,1.99c.32.54.72.94,1.21,1.21.49.27,1,.41,1.53.41s1.04-.14,1.54-.41c.5-.27.91-.68,1.22-1.23.31-.55.46-1.21.46-2.01s-.15-1.46-.46-1.99"/>
    <path class="cls-8" d="M1015.14,473.75v14.73h-4.52v-2.01c-.46.65-1.08,1.17-1.86,1.57-.78.39-1.65.59-2.6.59-1.13,0-2.12-.25-2.98-.75-.86-.5-1.53-1.23-2.01-2.18-.48-.95-.71-2.07-.71-3.35v-8.61h4.49v8c0,.99.25,1.75.77,2.3.51.55,1.2.82,2.06.82s1.58-.27,2.09-.82c.51-.55.76-1.31.76-2.3v-8h4.52Z"/>
    <path class="cls-8" d="M1020.3,471.52c-.5-.47-.75-1.04-.75-1.73s.25-1.29.75-1.76c.5-.47,1.15-.7,1.94-.7s1.41.23,1.91.7c.5.47.75,1.05.75,1.76s-.25,1.26-.75,1.73c-.5.46-1.14.7-1.91.7s-1.44-.23-1.94-.7M1024.48,488.49h-4.52v-14.73h4.52v14.73Z"/>
    <path class="cls-8" d="M1031.9,488.04c-1-.44-1.8-1.04-2.38-1.81-.58-.77-.91-1.62-.98-2.58h4.46c.05.51.29.93.71,1.24.42.32.94.48,1.56.48.56,0,1-.11,1.31-.33.31-.22.46-.51.46-.86,0-.42-.22-.74-.66-.94-.44-.2-1.15-.43-2.14-.67-1.06-.25-1.94-.51-2.64-.78-.7-.27-1.31-.7-1.82-1.29s-.77-1.39-.77-2.39c0-.84.23-1.61.7-2.31.47-.7,1.15-1.24,2.06-1.65.91-.41,1.98-.61,3.23-.61,1.85,0,3.31.46,4.37,1.37,1.07.92,1.68,2.13,1.83,3.64h-4.17c-.07-.51-.3-.92-.67-1.21-.38-.3-.88-.45-1.49-.45-.53,0-.93.1-1.21.3-.28.2-.42.48-.42.83,0,.42.22.74.67.95.45.21,1.15.42,2.1.63,1.09.28,1.98.56,2.67.83.69.27,1.29.71,1.81,1.32.52.61.79,1.42.8,2.44,0,.86-.24,1.63-.72,2.31-.49.68-1.18,1.21-2.09,1.6-.91.39-1.96.58-3.16.58-1.29,0-2.43-.22-3.43-.66"/>
    <path class="cls-8" d="M1045.62,477.1c.57-1.14,1.35-2.02,2.34-2.64.99-.62,2.09-.92,3.3-.92,1.04,0,1.95.21,2.73.63.78.42,1.39.98,1.81,1.66v-2.09h4.52v14.73h-4.52v-2.09c-.44.69-1.05,1.24-1.83,1.66-.78.42-1.7.63-2.73.63-1.2,0-2.29-.31-3.27-.94-.99-.62-1.76-1.51-2.34-2.67-.57-1.15-.86-2.49-.86-4s.29-2.84.86-3.99M1054.86,478.45c-.62-.65-1.39-.98-2.28-.98s-1.66.32-2.28.96c-.62.64-.94,1.53-.94,2.65s.31,2.02.94,2.68,1.38.99,2.28.99,1.66-.33,2.28-.98c.62-.65.94-1.54.94-2.67s-.31-2.02-.94-2.67"/>
    <path class="cls-8" d="M1067.73,488.04c-1-.44-1.8-1.04-2.38-1.81-.58-.77-.91-1.62-.98-2.58h4.46c.05.51.29.93.71,1.24.42.32.94.48,1.56.48.56,0,1-.11,1.31-.33.31-.22.46-.51.46-.86,0-.42-.22-.74-.66-.94-.44-.2-1.15-.43-2.14-.67-1.06-.25-1.94-.51-2.64-.78-.7-.27-1.31-.7-1.82-1.29-.51-.59-.77-1.39-.77-2.39,0-.84.23-1.61.7-2.31.47-.7,1.15-1.24,2.06-1.65.91-.41,1.99-.61,3.24-.61,1.85,0,3.31.46,4.37,1.37,1.06.92,1.68,2.13,1.83,3.64h-4.17c-.07-.51-.3-.92-.67-1.21-.38-.3-.88-.45-1.49-.45-.53,0-.93.1-1.21.3-.28.2-.42.48-.42.83,0,.42.22.74.67.95.45.21,1.15.42,2.1.63,1.09.28,1.98.56,2.67.83.69.27,1.29.71,1.81,1.32.52.61.79,1.42.8,2.44,0,.86-.24,1.63-.72,2.31-.48.68-1.18,1.21-2.09,1.6-.91.39-1.96.58-3.15.58-1.29,0-2.43-.22-3.43-.66"/>
    <path class="cls-8" d="M636.61,506.8h-10.22c.07.91.37,1.62.89,2.1.52.48,1.16.73,1.91.73,1.13,0,1.91-.48,2.35-1.43h4.8c-.25.97-.69,1.84-1.33,2.61-.64.77-1.45,1.38-2.42,1.82-.97.44-2.05.66-3.25.66-1.44,0-2.73-.31-3.85-.92-1.13-.61-2.01-1.49-2.64-2.64-.63-1.14-.95-2.48-.95-4.01s.31-2.87.94-4.02c.62-1.14,1.5-2.02,2.63-2.64,1.13-.62,2.42-.92,3.88-.92s2.69.3,3.8.9c1.11.6,1.97,1.45,2.6,2.56.62,1.11.94,2.4.94,3.88,0,.42-.02.86-.08,1.32M632.07,504.29c0-.77-.27-1.39-.79-1.85-.53-.46-1.19-.69-1.98-.69s-1.4.22-1.91.66c-.52.44-.84,1.07-.96,1.88h5.65Z"/>
    <path class="cls-8" d="M663.82,499.85c1.08,1.11,1.62,2.65,1.62,4.62v8.61h-4.49v-8c0-.95-.25-1.68-.75-2.2s-1.19-.78-2.07-.78-1.57.26-2.07.78c-.5.52-.75,1.25-.75,2.2v8h-4.49v-8c0-.95-.25-1.68-.75-2.2-.5-.52-1.19-.78-2.07-.78s-1.57.26-2.07.78c-.5.52-.75,1.25-.75,2.2v8h-4.52v-14.73h4.52v1.85c.46-.62,1.06-1.11,1.8-1.47.74-.36,1.57-.54,2.51-.54,1.11,0,2.1.24,2.97.71.87.48,1.55,1.15,2.05,2.03.51-.81,1.21-1.47,2.09-1.98.88-.51,1.84-.77,2.88-.77,1.83,0,3.29.56,4.37,1.66"/>
    <polygon class="cls-8" points="681.89 498.16 681.89 501.91 687.94 501.91 687.94 505.4 681.89 505.4 681.89 509.46 688.73 509.46 688.73 513.08 677.38 513.08 677.38 494.54 688.73 494.54 688.73 498.16 681.89 498.16"/>
    <polygon class="cls-8" points="701.96 513.08 699.13 508.99 696.76 513.08 691.87 513.08 696.73 505.56 691.74 498.35 696.81 498.35 699.64 502.41 702.01 498.35 706.9 498.35 701.96 505.77 707.03 513.08 701.96 513.08"/>
    <path class="cls-8" d="M716.69,498.77c.78-.42,1.68-.63,2.72-.63,1.22,0,2.32.31,3.3.92.98.62,1.77,1.5,2.34,2.64.57,1.15.86,2.48.86,3.99s-.29,2.85-.86,4c-.57,1.15-1.35,2.04-2.34,2.67-.99.62-2.09.94-3.3.94-1.02,0-1.92-.21-2.71-.63-.78-.42-1.4-.97-1.84-1.64v9.08h-4.52v-21.76h4.52v2.09c.44-.69,1.05-1.24,1.82-1.66M720.38,503.03c-.62-.64-1.4-.96-2.31-.96s-1.66.33-2.28.98c-.62.65-.94,1.54-.94,2.67s.31,2.01.94,2.67c.62.65,1.39.98,2.28.98s1.66-.33,2.3-.99c.63-.66.95-1.55.95-2.68s-.31-2.01-.94-2.65"/>
    <path class="cls-8" d="M743.68,506.8h-10.22c.07.91.37,1.62.89,2.1.52.48,1.16.73,1.91.73,1.13,0,1.91-.48,2.35-1.43h4.81c-.25.97-.69,1.84-1.33,2.61-.64.77-1.45,1.38-2.42,1.82-.97.44-2.05.66-3.25.66-1.44,0-2.73-.31-3.85-.92-1.13-.61-2.01-1.49-2.64-2.64-.63-1.14-.95-2.48-.95-4.01s.31-2.87.94-4.02c.62-1.14,1.5-2.02,2.63-2.64,1.13-.62,2.42-.92,3.88-.92s2.69.3,3.8.9c1.11.6,1.98,1.45,2.6,2.56.62,1.11.94,2.4.94,3.88,0,.42-.03.86-.08,1.32M739.14,504.29c0-.77-.26-1.39-.79-1.85-.53-.46-1.19-.69-1.98-.69s-1.4.22-1.92.66c-.52.44-.84,1.07-.96,1.88h5.65Z"/>
    <path class="cls-8" d="M754.21,498.89c.79-.47,1.67-.7,2.64-.7v4.78h-1.24c-1.13,0-1.97.24-2.53.73-.56.48-.84,1.33-.84,2.55v6.84h-4.52v-14.73h4.52v2.45c.53-.81,1.19-1.45,1.98-1.91"/>
    <path class="cls-8" d="M760.93,496.12c-.5-.47-.75-1.04-.75-1.73s.25-1.29.75-1.76c.5-.47,1.15-.7,1.94-.7s1.41.23,1.91.7c.5.47.75,1.05.75,1.76s-.25,1.26-.75,1.73c-.5.47-1.14.7-1.91.7s-1.44-.23-1.94-.7M765.12,513.08h-4.52v-14.73h4.52v14.73Z"/>
    <path class="cls-8" d="M793.15,499.85c1.08,1.11,1.62,2.65,1.62,4.62v8.61h-4.49v-8c0-.95-.25-1.68-.75-2.2s-1.19-.78-2.07-.78-1.57.26-2.07.78c-.5.52-.75,1.25-.75,2.2v8h-4.49v-8c0-.95-.25-1.68-.75-2.2-.5-.52-1.19-.78-2.07-.78s-1.57.26-2.07.78c-.5.52-.75,1.25-.75,2.2v8h-4.52v-14.73h4.52v1.85c.46-.62,1.06-1.11,1.8-1.47.74-.36,1.57-.54,2.51-.54,1.11,0,2.1.24,2.97.71.87.48,1.55,1.15,2.05,2.03.51-.81,1.21-1.47,2.09-1.98.88-.51,1.84-.77,2.88-.77,1.83,0,3.29.56,4.37,1.66"/>
    <path class="cls-8" d="M813.33,506.8h-10.22c.07.91.37,1.62.89,2.1.52.48,1.16.73,1.91.73,1.13,0,1.91-.48,2.35-1.43h4.81c-.25.97-.69,1.84-1.33,2.61-.64.77-1.45,1.38-2.42,1.82-.97.44-2.05.66-3.25.66-1.44,0-2.73-.31-3.85-.92-1.13-.61-2.01-1.49-2.64-2.64-.63-1.14-.95-2.48-.95-4.01s.31-2.87.94-4.02c.62-1.14,1.5-2.02,2.63-2.64,1.13-.62,2.42-.92,3.88-.92s2.69.3,3.8.9c1.11.6,1.98,1.45,2.6,2.56.62,1.11.94,2.4.94,3.88,0,.42-.03.86-.08,1.32M808.79,504.29c0-.77-.26-1.39-.79-1.85-.53-.46-1.19-.69-1.98-.69s-1.4.22-1.92.66c-.52.44-.84,1.07-.96,1.88h5.65Z"/>
    <path class="cls-8" d="M830.48,499.87c1.03,1.12,1.54,2.65,1.54,4.61v8.61h-4.49v-8c0-.99-.26-1.75-.77-2.3-.51-.55-1.2-.82-2.06-.82s-1.55.27-2.06.82c-.51.55-.77,1.31-.77,2.3v8h-4.52v-14.73h4.52v1.95c.46-.65,1.07-1.17,1.85-1.54.77-.38,1.64-.57,2.61-.57,1.73,0,3.1.56,4.13,1.68"/>
    <path class="cls-8" d="M844.96,509.25v3.83h-2.3c-1.64,0-2.91-.4-3.83-1.2-.91-.8-1.37-2.11-1.37-3.92v-5.86h-1.8v-3.75h1.8v-3.59h4.52v3.59h2.96v3.75h-2.96v5.92c0,.44.1.76.32.95.21.19.56.29,1.06.29h1.61Z"/>
    <path class="cls-8" d="M849.02,501.7c.57-1.14,1.35-2.02,2.34-2.64.99-.62,2.09-.92,3.3-.92,1.04,0,1.95.21,2.73.63.78.42,1.39.98,1.81,1.66v-2.09h4.52v14.73h-4.52v-2.09c-.44.69-1.05,1.24-1.83,1.66-.78.42-1.7.63-2.73.63-1.2,0-2.29-.31-3.27-.94-.99-.62-1.76-1.51-2.34-2.67-.57-1.15-.86-2.49-.86-4s.29-2.84.86-3.99M858.26,503.05c-.62-.65-1.39-.98-2.28-.98s-1.66.32-2.28.96c-.62.64-.94,1.53-.94,2.65s.31,2.02.94,2.68,1.38.99,2.28.99,1.66-.33,2.28-.98c.62-.65.94-1.54.94-2.67s-.31-2.02-.94-2.67"/>
    <path class="cls-8" d="M877.33,507.75h4.8c-.33,1.5-1,2.72-2.01,3.67-1,.95-2.25,1.54-3.75,1.77v.98c.92,0,1.72.25,2.4.75.69.5,1.03,1.25,1.03,2.26s-.36,1.76-1.08,2.28c-.72.52-1.58.78-2.59.78h-4.07v-2.48h3.46c.35,0,.61-.05.79-.16.18-.11.26-.28.26-.53s-.09-.42-.26-.51c-.18-.1-.44-.15-.79-.15h-1.88v-3.22c-1.81-.28-3.27-1.09-4.36-2.42-1.09-1.33-1.64-3.01-1.64-5.06,0-1.53.31-2.87.94-4.01.62-1.14,1.5-2.02,2.61-2.64,1.12-.61,2.4-.92,3.84-.92,1.85,0,3.39.48,4.63,1.45,1.24.97,2.06,2.33,2.44,4.09h-4.8c-.4-1.13-1.19-1.69-2.35-1.69-.83,0-1.49.32-1.98.96-.49.64-.74,1.56-.74,2.76s.25,2.12.74,2.76c.49.64,1.15.96,1.98.96,1.16,0,1.95-.56,2.35-1.69"/>
    <path class="cls-8" d="M886.09,501.7c.57-1.14,1.35-2.02,2.34-2.64.98-.62,2.09-.92,3.3-.92,1.04,0,1.95.21,2.73.63.78.42,1.39.98,1.81,1.66v-2.09h4.52v14.73h-4.52v-2.09c-.44.69-1.05,1.24-1.83,1.66-.78.42-1.69.63-2.73.63-1.2,0-2.29-.31-3.27-.94-.99-.62-1.76-1.51-2.34-2.67-.57-1.15-.86-2.49-.86-4s.29-2.84.86-3.99M891.91,493.2c.39,0,.73.06,1.02.17.29.11.65.29,1.07.52.32.17.57.3.76.38.19.08.4.12.61.12.65,0,1.03-.4,1.14-1.19h2.32c-.42,2.61-1.64,3.91-3.64,3.91-.39,0-.72-.06-1.02-.17-.29-.11-.65-.29-1.07-.52-.32-.18-.57-.3-.77-.38-.19-.08-.4-.12-.61-.12-.65,0-1.04.4-1.16,1.19h-2.3c.42-2.61,1.64-3.91,3.64-3.91M895.33,503.05c-.62-.65-1.39-.98-2.28-.98s-1.66.32-2.28.96c-.62.64-.94,1.53-.94,2.65s.31,2.02.94,2.68,1.39.99,2.28.99,1.66-.33,2.28-.98c.62-.65.94-1.54.94-2.67s-.31-2.02-.94-2.67"/>
    <path class="cls-8" d="M908.45,512.37c-1.15-.62-2.06-1.5-2.72-2.64-.66-1.14-.99-2.48-.99-4.01s.33-2.85,1-4c.67-1.15,1.58-2.04,2.75-2.65,1.16-.61,2.46-.92,3.91-.92s2.75.31,3.91.92c1.16.62,2.08,1.5,2.75,2.65.67,1.15,1,2.49,1,4s-.34,2.85-1.02,4c-.68,1.15-1.6,2.04-2.77,2.65-1.17.62-2.48.92-3.92.92s-2.74-.31-3.9-.92M914.55,508.43c.61-.63.91-1.54.91-2.72s-.29-2.09-.88-2.72c-.59-.64-1.32-.95-2.18-.95s-1.61.31-2.19.94c-.58.62-.87,1.54-.87,2.73s.29,2.09.86,2.72c.57.64,1.29.95,2.15.95s1.6-.32,2.2-.95"/>
    <path class="cls-8" d="M945.03,506.8h-10.22c.07.91.37,1.62.89,2.1.52.48,1.16.73,1.91.73,1.13,0,1.91-.48,2.35-1.43h4.81c-.25.97-.69,1.84-1.33,2.61-.64.77-1.45,1.38-2.42,1.82-.97.44-2.05.66-3.25.66-1.44,0-2.73-.31-3.85-.92-1.13-.61-2.01-1.49-2.64-2.64-.63-1.14-.95-2.48-.95-4.01s.31-2.87.94-4.02c.62-1.14,1.5-2.02,2.63-2.64,1.13-.62,2.42-.92,3.88-.92s2.69.3,3.8.9c1.11.6,1.98,1.45,2.6,2.56.62,1.11.94,2.4.94,3.88,0,.42-.03.86-.08,1.32M940.49,504.29c0-.77-.26-1.39-.79-1.85-.53-.46-1.19-.69-1.98-.69s-1.4.22-1.92.66c-.52.44-.84,1.07-.96,1.88h5.65Z"/>
    <polygon class="cls-8" points="643.79 519.14 643.79 537.68 639.28 537.68 639.28 526.56 635.13 537.68 631.49 537.68 627.31 526.53 627.31 537.68 622.8 537.68 622.8 519.14 628.13 519.14 633.33 531.97 638.48 519.14 643.79 519.14"/>
    <path class="cls-8" d="M662.43,531.39h-10.22c.07.92.37,1.62.89,2.1.52.48,1.16.73,1.91.73,1.13,0,1.91-.48,2.35-1.43h4.81c-.25.97-.69,1.84-1.33,2.61-.64.77-1.45,1.38-2.42,1.82-.97.44-2.05.66-3.25.66-1.44,0-2.73-.31-3.85-.92-1.13-.61-2.01-1.49-2.64-2.64-.63-1.14-.95-2.48-.95-4.01s.31-2.87.94-4.02c.62-1.14,1.5-2.02,2.63-2.64,1.13-.62,2.42-.92,3.88-.92s2.69.3,3.8.9c1.11.6,1.98,1.45,2.6,2.56.62,1.11.94,2.4.94,3.88,0,.42-.03.86-.08,1.32M657.89,528.88c0-.77-.26-1.39-.79-1.85-.53-.46-1.19-.69-1.98-.69s-1.4.22-1.91.66c-.52.44-.84,1.07-.96,1.88h5.65Z"/>
    <rect class="cls-8" x="666.47" y="518.14" width="4.52" height="19.54"/>
    <path class="cls-8" d="M688.97,524.46c1.02,1.12,1.53,2.65,1.53,4.61v8.61h-4.49v-8c0-.99-.26-1.75-.77-2.3-.51-.55-1.2-.82-2.06-.82s-1.55.27-2.06.82c-.51.55-.77,1.31-.77,2.3v8h-4.52v-19.54h4.52v6.79c.46-.65,1.08-1.17,1.88-1.56.79-.39,1.68-.58,2.67-.58,1.69,0,3.05.56,4.07,1.68"/>
    <path class="cls-8" d="M698.04,536.96c-1.15-.62-2.06-1.5-2.72-2.64-.66-1.14-.99-2.48-.99-4.01s.33-2.85,1-4c.67-1.15,1.58-2.04,2.75-2.65,1.16-.61,2.46-.92,3.91-.92s2.75.31,3.91.92c1.16.62,2.08,1.5,2.75,2.65.67,1.15,1,2.49,1,4s-.34,2.85-1.02,4c-.68,1.15-1.6,2.04-2.77,2.65-1.17.62-2.48.92-3.92.92s-2.74-.31-3.9-.92M704.14,533.03c.61-.63.91-1.54.91-2.72s-.3-2.09-.89-2.72c-.59-.64-1.32-.95-2.18-.95s-1.61.31-2.19.94c-.58.62-.87,1.54-.87,2.73s.29,2.09.86,2.72c.57.63,1.29.95,2.15.95s1.6-.32,2.2-.95"/>
    <path class="cls-8" d="M720.13,523.48c.79-.47,1.67-.7,2.64-.7v4.78h-1.24c-1.13,0-1.97.24-2.53.73-.56.48-.84,1.33-.84,2.55v6.84h-4.52v-14.73h4.52v2.45c.53-.81,1.19-1.45,1.98-1.91"/>
    <path class="cls-8" d="M726.48,526.29c.57-1.14,1.35-2.02,2.34-2.64.98-.62,2.09-.92,3.3-.92,1.04,0,1.95.21,2.73.63.78.42,1.39.98,1.81,1.66v-2.09h4.51v14.73h-4.51v-2.09c-.44.69-1.05,1.24-1.83,1.66-.78.42-1.69.63-2.73.63-1.2,0-2.29-.31-3.27-.94-.99-.62-1.76-1.51-2.34-2.67-.57-1.15-.86-2.49-.86-4s.29-2.84.86-3.99M735.72,527.64c-.62-.65-1.39-.98-2.28-.98s-1.66.32-2.28.96c-.62.64-.94,1.53-.94,2.65s.31,2.02.94,2.68,1.39.99,2.28.99,1.66-.33,2.28-.98c.62-.65.94-1.54.94-2.67s-.31-2.02-.94-2.67"/>
    <path class="cls-8" d="M769.2,524.45c1.08,1.11,1.62,2.65,1.62,4.62v8.61h-4.49v-8c0-.95-.25-1.68-.75-2.2s-1.19-.78-2.07-.78-1.57.26-2.07.78c-.5.52-.75,1.25-.75,2.2v8h-4.49v-8c0-.95-.25-1.68-.75-2.2-.5-.52-1.19-.78-2.07-.78s-1.57.26-2.07.78c-.5.52-.75,1.25-.75,2.2v8h-4.52v-14.73h4.52v1.85c.46-.62,1.06-1.11,1.8-1.47.74-.36,1.57-.54,2.51-.54,1.11,0,2.1.24,2.97.71.87.48,1.55,1.15,2.05,2.03.51-.81,1.21-1.47,2.09-1.98.88-.51,1.84-.77,2.88-.77,1.83,0,3.29.56,4.37,1.66"/>
    <path class="cls-8" d="M789.38,531.39h-10.22c.07.92.37,1.62.89,2.1.52.48,1.16.73,1.91.73,1.13,0,1.91-.48,2.35-1.43h4.81c-.25.97-.69,1.84-1.33,2.61-.64.77-1.45,1.38-2.42,1.82-.97.44-2.05.66-3.25.66-1.44,0-2.73-.31-3.85-.92-1.13-.61-2.01-1.49-2.64-2.64-.63-1.14-.95-2.48-.95-4.01s.31-2.87.94-4.02c.62-1.14,1.5-2.02,2.63-2.64,1.13-.62,2.42-.92,3.88-.92s2.69.3,3.8.9c1.11.6,1.98,1.45,2.6,2.56.62,1.11.94,2.4.94,3.88,0,.42-.03.86-.08,1.32M784.84,528.88c0-.77-.26-1.39-.79-1.85-.53-.46-1.19-.69-1.98-.69s-1.4.22-1.92.66c-.52.44-.84,1.07-.96,1.88h5.65Z"/>
    <path class="cls-8" d="M806.53,524.46c1.03,1.12,1.54,2.65,1.54,4.61v8.61h-4.49v-8c0-.99-.26-1.75-.77-2.3-.51-.55-1.2-.82-2.06-.82s-1.55.27-2.06.82c-.51.55-.77,1.31-.77,2.3v8h-4.52v-14.73h4.52v1.95c.46-.65,1.07-1.17,1.85-1.54.77-.38,1.64-.57,2.61-.57,1.72,0,3.1.56,4.13,1.68"/>
    <path class="cls-8" d="M821.01,533.85v3.83h-2.3c-1.64,0-2.91-.4-3.83-1.2-.91-.8-1.37-2.11-1.37-3.92v-5.86h-1.8v-3.75h1.8v-3.59h4.52v3.59h2.96v3.75h-2.96v5.92c0,.44.1.76.31.95.21.19.56.29,1.06.29h1.61Z"/>
    <path class="cls-8" d="M827.92,536.96c-1.15-.62-2.06-1.5-2.72-2.64-.66-1.14-.99-2.48-.99-4.01s.33-2.85,1-4c.67-1.15,1.58-2.04,2.75-2.65,1.16-.61,2.46-.92,3.91-.92s2.75.31,3.91.92c1.16.62,2.08,1.5,2.75,2.65.67,1.15,1,2.49,1,4s-.34,2.85-1.02,4c-.68,1.15-1.6,2.04-2.77,2.65-1.17.62-2.48.92-3.92.92s-2.74-.31-3.9-.92M834.02,533.03c.61-.63.91-1.54.91-2.72s-.3-2.09-.89-2.72c-.59-.64-1.32-.95-2.18-.95s-1.61.31-2.19.94c-.58.62-.87,1.54-.87,2.73s.29,2.09.86,2.72c.57.63,1.29.95,2.15.95s1.6-.32,2.2-.95"/>
    <polygon class="cls-8" points="868.09 519.14 861.52 537.68 855.87 537.68 849.29 519.14 854.1 519.14 858.69 533.13 863.31 519.14 868.09 519.14"/>
    <path class="cls-8" d="M885.36,531.39h-10.22c.07.92.37,1.62.89,2.1.52.48,1.16.73,1.91.73,1.13,0,1.91-.48,2.35-1.43h4.81c-.25.97-.69,1.84-1.33,2.61-.64.77-1.45,1.38-2.42,1.82-.97.44-2.05.66-3.25.66-1.44,0-2.73-.31-3.85-.92-1.13-.61-2.01-1.49-2.64-2.64-.63-1.14-.95-2.48-.95-4.01s.31-2.87.94-4.02c.62-1.14,1.5-2.02,2.63-2.64,1.13-.62,2.42-.92,3.88-.92s2.69.3,3.8.9c1.11.6,1.98,1.45,2.6,2.56.62,1.11.94,2.4.94,3.88,0,.42-.03.86-.08,1.32M880.82,528.88c0-.77-.26-1.39-.79-1.85-.53-.46-1.19-.69-1.98-.69s-1.4.22-1.91.66c-.52.44-.84,1.07-.96,1.88h5.65Z"/>
    <path class="cls-8" d="M897.73,523.37c.78.42,1.39.98,1.81,1.66v-2.09h4.52v14.71c0,1.35-.27,2.58-.8,3.68-.54,1.1-1.36,1.98-2.46,2.63-1.1.65-2.47.98-4.1.98-2.18,0-3.95-.52-5.31-1.54-1.36-1.03-2.13-2.43-2.32-4.19h4.46c.14.56.48,1.01,1,1.33.53.33,1.18.49,1.95.49.93,0,1.68-.27,2.23-.81.56-.54.83-1.39.83-2.57v-2.09c-.44.69-1.05,1.25-1.82,1.68-.77.43-1.68.65-2.72.65-1.21,0-2.31-.31-3.3-.94-.99-.62-1.76-1.51-2.34-2.67-.57-1.15-.86-2.49-.86-4s.29-2.84.86-3.99c.57-1.14,1.35-2.02,2.34-2.64.99-.62,2.09-.92,3.3-.92,1.04,0,1.95.21,2.73.63M898.6,527.64c-.62-.65-1.39-.98-2.28-.98s-1.66.32-2.28.96c-.62.64-.94,1.53-.94,2.65s.31,2.02.94,2.68,1.39.99,2.28.99,1.66-.33,2.28-.98c.62-.65.94-1.54.94-2.67s-.31-2.02-.94-2.67"/>
    <path class="cls-8" d="M922.72,531.39h-10.22c.07.92.37,1.62.89,2.1.52.48,1.16.73,1.91.73,1.13,0,1.91-.48,2.35-1.43h4.81c-.25.97-.69,1.84-1.33,2.61-.64.77-1.45,1.38-2.42,1.82-.97.44-2.05.66-3.25.66-1.44,0-2.73-.31-3.85-.92-1.13-.61-2.01-1.49-2.64-2.64-.63-1.14-.95-2.48-.95-4.01s.31-2.87.94-4.02c.62-1.14,1.5-2.02,2.63-2.64,1.13-.62,2.42-.92,3.88-.92s2.69.3,3.8.9c1.11.6,1.98,1.45,2.6,2.56.62,1.11.94,2.4.94,3.88,0,.42-.03.86-.08,1.32M918.18,528.88c0-.77-.26-1.39-.79-1.85-.53-.46-1.19-.69-1.98-.69s-1.4.22-1.92.66c-.52.44-.84,1.07-.96,1.88h5.65Z"/>
    <path class="cls-8" d="M934.97,533.85v3.83h-2.3c-1.64,0-2.91-.4-3.83-1.2-.91-.8-1.37-2.11-1.37-3.92v-5.86h-1.8v-3.75h1.8v-3.59h4.52v3.59h2.96v3.75h-2.96v5.92c0,.44.1.76.31.95.21.19.56.29,1.06.29h1.61Z"/>
    <path class="cls-8" d="M939.03,526.29c.57-1.14,1.35-2.02,2.34-2.64.99-.62,2.09-.92,3.3-.92,1.04,0,1.95.21,2.73.63.78.42,1.39.98,1.81,1.66v-2.09h4.52v14.73h-4.52v-2.09c-.44.69-1.05,1.24-1.83,1.66-.78.42-1.7.63-2.73.63-1.2,0-2.29-.31-3.27-.94-.99-.62-1.76-1.51-2.34-2.67-.57-1.15-.86-2.49-.86-4s.29-2.84.86-3.99M948.27,527.64c-.62-.65-1.39-.98-2.28-.98s-1.66.32-2.28.96c-.62.64-.94,1.53-.94,2.65s.31,2.02.94,2.68,1.38.99,2.28.99,1.66-.33,2.28-.98c.62-.65.94-1.54.94-2.67s-.31-2.02-.94-2.67"/>
    <rect class="cls-8" x="958.58" y="518.14" width="4.52" height="19.54"/>
  </g>
  <g class="cls-34">
    <rect class="cls-11" x="-34.86" y="218.88" width="272" height="200.95" transform="translate(-218.7 418.92) rotate(-89.72)"/>
  </g>
  <g class="cls-30">
    <rect class="cls-25" x="196" y="243.91" width="239.35" height="178.49" transform="translate(-19.04 647.18) rotate(-89.72)"/>
  </g>
  <g class="cls-28">
    <rect class="cls-21" x="854.45" y="185.74" width="243.79" height="267.19" transform="translate(652.21 1294.09) rotate(-89.72)"/>
  </g>
  <g class="cls-35">
    <rect class="cls-17" x="604.69" y="228.65" width="247.13" height="198.67" transform="translate(396.68 1054.62) rotate(-89.72)"/>
  </g>
  <g>
    <g class="cls-31">
      <rect class="cls-19" x="525.92" y="263.27" width="5.07" height="6.97"/>
    </g>
    <path class="cls-26" d="M546.8,303.49h0c.53.62,1.06,1.24,1.56,1.87-.95-1.2-1.56-1.87-1.56-1.87"/>
    <g class="cls-29">
      <polygon class="cls-6" points="497.66 327.66 554.22 311.42 571.46 341.22 514.9 357.47 497.66 327.66"/>
    </g>
    <g>
      <path class="cls-32" d="M522.01,320.22s-.1.03-.17.09c-.47.4-.11,1.66.6,3.22,9.83-3.33,19.66-6.65,29.49-9.98-.72-1.37-1.45-2.75-2.17-4.12-16.08,6.32-27.11,10.63-27.75,10.79Z"/>
      <g class="cls-36">
        <polygon class="cls-14" points="509.83 311.26 547.12 297.57 558.48 322.68 521.2 336.37 509.83 311.26"/>
      </g>
    </g>
    <g class="cls-33">
      <polygon class="cls-2" points="502.74 344.57 551.89 328.93 566.86 357.61 517.72 373.24 502.74 344.57"/>
    </g>
    <path class="cls-12" d="M556.37,236.08l-10.91,4.58.22-1.72-1.4-1.05,10.92-4.59c.19-.08.38-.12.58-.12.59,0,1.15.35,1.39.93.32.76-.04,1.65-.8,1.97Z"/>
    <rect class="cls-7" x="544.48" y="246.15" width="17.1" height="3.35" rx="1.68" ry="1.68" transform="translate(-52.82 233.52) rotate(-22.79)"/>
    <path class="cls-15" d="M544.5,267.27l-11.76,4.94c-.54.23-1.17-.03-1.4-.57l-.82-1.96c-.23-.55.02-1.17.57-1.4l11.69-4.91-.28,2.43,2,1.47Z"/>
    <path class="cls-5" d="M538.94,255.77l-12.61,5.3c-.2.08-.44-.01-.52-.22l-.99-2.34c-.08-.2.01-.44.21-.52l12.63-5.31c-.82.37-1.2,1.34-.85,2.17.27.64.9,1.03,1.56,1.03.19,0,.38-.03.57-.11Z"/>
    <path class="cls-20" d="M548.05,225.48s-.09.02-.13.03"/>
    <g class="cls-37">
      <polygon class="cls-3" points="622.99 0 634.09 553.61 301.44 561.45 290.33 7.84 622.99 0"/>
      <path class="cls-10" d="M1167.87,448.85c-227.74,6.13-455.49,12.26-683.23,18.38"/>
    </g>
    <g class="cls-1">
      <rect class="cls-13" x="485.39" y="219.26" width="106.01" height="146.34" transform="translate(-62.6 173.34) rotate(-17.3)"/>
    </g>
    <g>
      <rect class="cls-4" x="519.92" y="245.63" width="12.44" height="3.02" rx="1.08" ry="1.08" transform="translate(-54.66 223.06) rotate(-22.79)"/>
      <polygon class="cls-23" points="532.04 246.3 530.42 246.97 529.02 245.92 529.24 244.2 530.86 243.53 532.26 244.58 532.04 246.3"/>
    </g>
    <g>
      <rect class="cls-22" x="547.01" y="258.61" width="15.05" height="4.26" rx="2.08" ry="2.08" transform="translate(-57.71 235.12) rotate(-22.79)"/>
      <polygon class="cls-24" points="551.47 264.35 549.17 265.31 547.15 263.84 547.44 261.4 549.74 260.44 551.76 261.91 551.47 264.35"/>
    </g>
    <g>
      <path class="cls-27" d="M525.19,237.93l-1.27.53-5.23,2.16c-.12.05-.24.07-.36.07-.37,0-.73-.23-.88-.59-.2-.48.03-1.04.51-1.24l5.22-2.15h.01s1.27-.53,1.27-.53c.12-.05.24-.07.37-.07.37,0,.73.22.88.58.19.49-.04,1.04-.52,1.24Z"/>
      <path class="cls-18" d="M525.19,237.93l-1.27.53c-.12.05-.24.07-.36.07-.38,0-.73-.22-.88-.59-.2-.48.03-1.03.5-1.23h.01s1.27-.53,1.27-.53c.12-.05.24-.07.37-.07.37,0,.73.22.88.58.19.49-.04,1.04-.52,1.24Z"/>
    </g>
    <path class="cls-9" d="M550.29,227.44c.02.05-.01.12-.06.14l-7.35,3.03c.48-.2.71-.76.52-1.24-.15-.37-.51-.59-.88-.59-.13,0-.24.02-.36.07l7.34-3.03c.06-.02.12,0,.14.06l.65,1.56Z"/>
    <path class="cls-10" d="M498.76,441.45c.71-.6,1.42-1.19,2.13-1.79"/>
  </g>
</svg>